<?xml version="1.0" encoding="UTF-8"?>
<svg id="Capa_2" data-name="Capa 2" xmlns="http://www.w3.org/2000/svg" viewBox="0 0 38.74 35.21">
  <defs>
    <style>
      .cls-1 {
        fill: #fff;
        stroke-width: 0px;
      }
    </style>
  </defs>
  <g id="TEXTO">
    <path class="cls-1" d="M16.66,7.04l.95-1.04v6.32c0,.47.19.91.52,1.25.33.33.78.52,1.25.52s.92-.19,1.25-.52c.33-.33.52-.78.52-1.25v-6.32l.95.97c.16.18.36.33.57.43.22.1.46.16.7.16.24,0,.48-.04.7-.13.22-.09.43-.22.6-.4.17-.16.3-.36.39-.57.09-.21.14-.44.14-.68s-.05-.46-.14-.68c-.09-.21-.22-.41-.39-.57L20.62.5c-.17-.16-.36-.29-.58-.37-.43-.18-.91-.18-1.34,0-.22.08-.41.21-.58.37l-4.03,3.96c-.34.34-.53.8-.53,1.29s.19.94.53,1.29c.34.34.8.53,1.29.53s.94-.19,1.29-.53ZM19.37,17.6c-1.04,0-2.07.31-2.94.89-.87.58-1.55,1.41-1.95,2.37-.4.97-.5,2.03-.3,3.05.2,1.02.71,1.97,1.45,2.7.74.74,1.68,1.24,2.71,1.45,1.02.2,2.09.1,3.05-.3.97-.4,1.79-1.08,2.37-1.95.58-.87.89-1.89.89-2.94,0-1.4-.56-2.74-1.55-3.74s-2.33-1.55-3.74-1.55ZM19.37,24.65c-.35,0-.69-.1-.98-.3-.29-.19-.52-.47-.65-.79-.13-.32-.17-.68-.1-1.02.07-.34.24-.66.48-.9.25-.25.56-.41.9-.48s.7-.03,1.02.1.6.36.79.65c.19.29.3.63.3.98,0,.47-.19.92-.52,1.25s-.78.52-1.25.52ZM7.04,22.88c0,.35.1.69.3.98.19.29.47.52.79.65.32.13.68.17,1.02.1.34-.07.66-.24.9-.48.25-.25.41-.56.48-.9.07-.34.03-.7-.1-1.02-.13-.32-.36-.6-.65-.79-.29-.19-.63-.3-.98-.3-.47,0-.91.19-1.25.52-.33.33-.52.78-.52,1.25ZM31.7,22.88c0-.35-.1-.69-.3-.98-.19-.29-.47-.52-.79-.65s-.68-.17-1.02-.1c-.34.07-.66.24-.9.48-.25.25-.41.56-.48.9-.07.34-.03.7.1,1.02.13.32.36.6.65.79.29.19.63.3.98.3.47,0,.92-.19,1.25-.52s.52-.78.52-1.25ZM33.46,10.56h-7.04c-.47,0-.92.19-1.25.52s-.52.78-.52,1.25.19.91.52,1.25c.33.33.78.52,1.25.52h7.04c.47,0,.92.19,1.25.52s.52.78.52,1.25v14.09c0,.47-.19.92-.52,1.25s-.78.52-1.25.52H5.28c-.47,0-.91-.19-1.25-.52-.33-.33-.52-.78-.52-1.25v-14.09c0-.47.19-.91.52-1.25.33-.33.78-.52,1.25-.52h7.04c.47,0,.91-.19,1.25-.52.33-.33.52-.78.52-1.25s-.19-.91-.52-1.25c-.33-.33-.78-.52-1.25-.52h-7.04c-1.4,0-2.74.56-3.74,1.55-.99.99-1.55,2.33-1.55,3.74v14.09c0,1.4.56,2.74,1.55,3.74.99.99,2.33,1.55,3.74,1.55h28.18c1.4,0,2.74-.56,3.74-1.55s1.55-2.33,1.55-3.74v-14.09c0-1.4-.56-2.74-1.55-3.74-.99-.99-2.33-1.55-3.74-1.55Z"/>
  </g>
</svg>