<?xml version="1.0" encoding="UTF-8"?>
<svg id="Capa_2" data-name="Capa 2" xmlns="http://www.w3.org/2000/svg" xmlns:xlink="http://www.w3.org/1999/xlink" viewBox="0 0 135.08 135.08">
  <defs>
    <style>
      .cls-1 {
        fill: url(#Degradado_sin_nombre_3);
      }

      .cls-1, .cls-2 {
        stroke-width: 0px;
      }

      .cls-2 {
        fill: url(#Degradado_sin_nombre_3-2);
      }
    </style>
    <linearGradient id="Degradado_sin_nombre_3" data-name="Degradado sin nombre 3" x1="67.54" y1="43.61" x2="67.54" y2="79.17" gradientUnits="userSpaceOnUse">
      <stop offset="0" stop-color="#4dd485"/>
      <stop offset="1" stop-color="#00683e"/>
    </linearGradient>
    <linearGradient id="Degradado_sin_nombre_3-2" data-name="Degradado sin nombre 3" x1="67.54" y1="0" x2="67.54" y2="184.76" xlink:href="#Degradado_sin_nombre_3"/>
  </defs>
  <g id="TEXTO">
    <g>
      <path class="cls-1" d="M46.2,79.17h42.68v-35.56h-42.68v35.56ZM54.35,58.87c.67-.67,1.58-1.05,2.52-1.05s1.86.38,2.53,1.05l4.59,4.62,11.7-11.74c.33-.33.73-.59,1.16-.77.43-.18.9-.27,1.37-.27s.93.09,1.37.27c.43.18.83.44,1.16.77s.59.73.77,1.16c.18.43.27.9.27,1.37s-.09.93-.27,1.37c-.18.43-.44.83-.77,1.16l-14.23,14.23c-.33.33-.72.6-1.16.78-.43.18-.9.27-1.37.27s-.93-.09-1.37-.27c-.43-.18-.83-.44-1.16-.78l-7.11-7.11c-.67-.67-1.05-1.58-1.05-2.52s.38-1.86,1.05-2.52Z"/>
      <path class="cls-2" d="M67.54,0C30.24,0,0,30.24,0,67.54s30.24,67.54,67.54,67.54,67.54-30.24,67.54-67.54S104.84,0,67.54,0ZM99.55,79.17c.94,0,1.85.37,2.51,1.04.67.67,1.04,1.57,1.04,2.51s-.37,1.85-1.04,2.51c-.67.67-1.57,1.04-2.51,1.04h-28.45v4.16l16.18,10.67c.63.42,1.11,1.04,1.36,1.75.26.72.28,1.49.06,2.22-.22.73-.66,1.37-1.27,1.82-.61.46-1.35.7-2.11.71-.7,0-1.38-.2-1.96-.6l-12.27-8.11v5.16c0,.94-.37,1.85-1.04,2.51s-1.57,1.04-2.51,1.04-1.85-.38-2.51-1.04c-.67-.67-1.04-1.57-1.04-2.51v-5.16l-12.27,8.11c-.57.4-1.26.61-1.96.6-.78.02-1.55-.22-2.18-.68-.63-.46-1.09-1.11-1.32-1.86-.22-.75-.19-1.55.09-2.28.28-.73.79-1.35,1.45-1.76l16.18-10.67v-4.09h-28.45c-.94,0-1.85-.37-2.51-1.04-.67-.67-1.04-1.57-1.04-2.51s.37-1.85,1.04-2.51c.67-.67,1.57-1.04,2.51-1.04h3.56v-35.56h-3.56c-.94,0-1.85-.37-2.51-1.04-.67-.67-1.04-1.57-1.04-2.51s.37-1.85,1.04-2.51,1.57-1.04,2.51-1.04h64.01c.94,0,1.85.37,2.51,1.04.67.67,1.04,1.57,1.04,2.51s-.37,1.85-1.04,2.51-1.57,1.04-2.51,1.04h-3.56v35.56h3.56Z"/>
    </g>
  </g>
</svg>