<?xml version="1.0" encoding="UTF-8"?>
<svg id="Capa_2" data-name="Capa 2" xmlns="http://www.w3.org/2000/svg" viewBox="0 0 48.61 597.18">
  <defs>
    <style>
      .cls-1 {
        opacity: .7;
      }

      .cls-2 {
        fill: none;
        opacity: .4;
        stroke: #00683e;
        stroke-miterlimit: 10;
      }

      .cls-3 {
        fill: #00683e;
        stroke-width: 0px;
      }
    </style>
  </defs>
  <g id="TEXTO">
    <path class="cls-2" d="M0,596.68h11.11c10.79,0,19.53-8.74,19.53-19.53V17.36C30.64,8.05,23.09.5,13.78.5H0"/>
    <g class="cls-1">
      <path class="cls-3" d="M14.02,191.34c-1.01,1.11-1.51,2.65-1.32,4.13.19,1.48,1.05,2.86,2.31,3.69,1.35.89,3.11,1.11,4.65.61-.51,1.51-.28,3.24.62,4.56.85,1.23,2.25,2.08,3.76,2.27,1.51.18,3.08-.3,4.21-1.29,1.25-1.1,1.98-2.47,2.38-4.06.39,1.59,1.13,2.96,2.38,4.06,1.13.99,2.71,1.48,4.21,1.29,1.51-.18,2.91-1.03,3.76-2.27.9-1.32,1.13-3.05.62-4.56,1.54.5,3.31.28,4.65-.61,1.26-.83,2.13-2.21,2.31-3.69.18-1.48-.31-3.02-1.32-4.13-1.12-1.23-2.52-1.95-4.13-2.33,1.62-.39,3.01-1.11,4.13-2.33,1.01-1.11,1.51-2.66,1.32-4.13-.19-1.48-1.06-2.86-2.31-3.69-1.34-.88-3.11-1.11-4.65-.61.51-1.51.28-3.24-.62-4.56-.85-1.24-2.25-2.09-3.76-2.27-1.51-.18-3.08.3-4.21,1.29-1.25,1.09-1.98,2.47-2.38,4.06-.39-1.59-1.13-2.96-2.38-4.06-1.13-.99-2.71-1.48-4.21-1.29-1.51.18-2.91,1.03-3.76,2.27-.9,1.32-1.13,3.05-.62,4.56-1.54-.5-3.3-.28-4.65.61-1.26.83-2.12,2.21-2.31,3.69-.19,1.48.31,3.03,1.32,4.13,1.12,1.22,2.52,1.95,4.13,2.33-1.62.39-3.02,1.1-4.13,2.33ZM23.13,189.01c2.08-.37,4.1-.87,5.91-1.56.71-1.78,1.23-3.75,1.6-5.8.37,2.04.89,4.02,1.59,5.8,1.81.69,3.83,1.2,5.91,1.56-2.08.36-4.1.87-5.91,1.56-.71,1.77-1.23,3.75-1.59,5.8-.37-2.04-.89-4.02-1.6-5.8-1.81-.69-3.82-1.2-5.91-1.56Z"/>
    </g>
  </g>
</svg>