<?xml version="1.0" encoding="UTF-8"?>
<svg id="Capa_2" data-name="Capa 2" xmlns="http://www.w3.org/2000/svg" xmlns:xlink="http://www.w3.org/1999/xlink" viewBox="0 0 31.85 31.94">
  <defs>
    <style>
      .cls-1 {
        fill: url(#Degradado_sin_nombre_3);
        fill-rule: evenodd;
        stroke-width: 0px;
      }
    </style>
    <linearGradient id="Degradado_sin_nombre_3" data-name="Degradado sin nombre 3" x1="0" y1="15.97" x2="31.85" y2="15.97" gradientUnits="userSpaceOnUse">
      <stop offset="0" stop-color="#4dd485"/>
      <stop offset="1" stop-color="#00683e"/>
    </linearGradient>
  </defs>
  <g id="TEXTO">
    <path class="cls-1" d="M16.08,0C7.38,0,.3,7.08.3,15.77c0,2.66.68,5.28,1.98,7.63L0,31.94l8.58-2.29c2.31,1.25,4.88,1.91,7.49,1.91,8.71,0,15.77-7.08,15.77-15.77S24.78,0,16.08,0ZM16.08,28.56c-2.28,0-4.54-.62-6.53-1.8l-.53-.33-4.8,1.29,1.28-4.77-.33-.55c-1.23-2-1.87-4.3-1.87-6.63,0-7.05,5.73-12.79,12.79-12.79s12.8,5.73,12.8,12.79-5.74,12.79-12.8,12.79ZM21.94,17.97c-.64-.39-1.49-.83-2.26-.51-.58.23-.96,1.15-1.34,1.63-.19.24-.43.28-.73.16-2.2-.89-3.89-2.36-5.1-4.37-.21-.32-.17-.57.07-.86.36-.42.83-.92.92-1.51.11-.58-.17-1.26-.41-1.78-.3-.66-.64-1.6-1.31-1.98-.61-.34-1.42-.16-1.96.29-.95.76-1.4,1.97-1.38,3.14,0,.34.05.68.12,1.01.19.78.56,1.51.96,2.21.32.52.64,1.03,1.01,1.52,1.18,1.6,2.63,2.99,4.33,4.03.85.52,1.76.97,2.71,1.29,1.07.35,2,.72,3.16.5,1.19-.23,2.38-.97,2.85-2.12.15-.34.21-.73.13-1.09-.16-.74-1.18-1.19-1.78-1.54Z"/>
  </g>
</svg>