<?xml version="1.0" encoding="UTF-8"?>
<svg id="Capa_2" data-name="Capa 2" xmlns="http://www.w3.org/2000/svg" viewBox="0 0 76.41 76.41">
  <defs>
    <style>
      .cls-1 {
        fill: #003c25;
        stroke-width: 0px;
      }
    </style>
  </defs>
  <g id="TEXTO">
    <path class="cls-1" d="M64.95,38.21h-26.74V11.46c0-2.29-1.53-3.82-3.82-3.82C15.28,7.64,0,22.92,0,42.03s15.28,34.39,34.39,34.39,34.39-15.28,34.39-34.39c0-2.29-1.53-3.82-3.82-3.82ZM38.21,68.39c-14.52,2.29-28.27-8.02-30.18-22.54-2.29-14.52,8.02-28.27,22.54-30.18v26.36c0,2.29,1.53,3.82,3.82,3.82h26.36c-1.53,11.84-10.7,21.01-22.54,22.54ZM49.67,0c-2.29,0-3.82,1.53-3.82,3.82v22.92c0,2.29,1.53,3.82,3.82,3.82h22.92c2.29,0,3.82-1.53,3.82-3.82,0-14.9-11.84-26.74-26.74-26.74ZM53.49,22.92v-14.9c7.64,1.53,13.37,7.26,14.9,14.9h-14.9Z"/>
  </g>
</svg>