<?xml version="1.0" encoding="UTF-8"?>
<svg id="Capa_2" data-name="Capa 2" xmlns="http://www.w3.org/2000/svg" xmlns:xlink="http://www.w3.org/1999/xlink" viewBox="0 0 19.18 19.23">
  <defs>
    <style>
      .cls-1 {
        fill: url(#Degradado_sin_nombre_3);
        fill-rule: evenodd;
        stroke-width: 0px;
      }
    </style>
    <linearGradient id="Degradado_sin_nombre_3" data-name="Degradado sin nombre 3" x1="0" y1="9.61" x2="19.18" y2="9.61" gradientUnits="userSpaceOnUse">
      <stop offset="0" stop-color="#4dd485"/>
      <stop offset="1" stop-color="#00683e"/>
    </linearGradient>
  </defs>
  <g id="TEXTO">
    <path class="cls-1" d="M9.68,0C4.44,0,.18,4.26.18,9.5c0,1.6.41,3.18,1.19,4.59l-1.37,5.14,5.17-1.38c1.39.75,2.94,1.15,4.51,1.15,5.24,0,9.5-4.26,9.5-9.5S14.92,0,9.68,0ZM9.68,17.19c-1.37,0-2.73-.37-3.93-1.08l-.32-.2-2.89.77.77-2.87-.2-.33c-.74-1.21-1.13-2.59-1.13-3.99C1.98,5.25,5.43,1.8,9.68,1.8s7.71,3.45,7.71,7.7-3.46,7.7-7.71,7.7ZM13.21,10.82c-.39-.23-.9-.5-1.36-.31-.35.14-.58.69-.8.98-.12.15-.26.17-.44.1-1.32-.53-2.34-1.42-3.07-2.63-.12-.19-.1-.34.04-.52.22-.26.5-.56.56-.91.07-.35-.1-.76-.25-1.07-.18-.39-.39-.97-.79-1.19-.37-.2-.86-.1-1.18.18-.57.46-.84,1.18-.83,1.89,0,.2.03.41.07.61.12.47.34.91.58,1.33.19.31.39.62.61.91.71.96,1.59,1.8,2.61,2.43.51.31,1.06.58,1.63.77.64.21,1.21.43,1.9.3.72-.14,1.43-.58,1.72-1.28.09-.2.12-.44.08-.66-.1-.45-.71-.72-1.07-.93Z"/>
  </g>
</svg>