<?xml version="1.0" encoding="UTF-8"?>
<svg id="Capa_2" data-name="Capa 2" xmlns="http://www.w3.org/2000/svg" xmlns:xlink="http://www.w3.org/1999/xlink" viewBox="0 0 135.08 135.09">
  <defs>
    <style>
      .cls-1 {
        fill: url(#Degradado_sin_nombre_3);
      }

      .cls-1, .cls-2 {
        stroke-width: 0px;
      }

      .cls-2 {
        fill: url(#Degradado_sin_nombre_3-2);
      }
    </style>
    <linearGradient id="Degradado_sin_nombre_3" data-name="Degradado sin nombre 3" x1="84.75" y1="40.3" x2="84.75" y2="60.36" gradientUnits="userSpaceOnUse">
      <stop offset="0" stop-color="#4dd485"/>
      <stop offset="1" stop-color="#00683e"/>
    </linearGradient>
    <linearGradient id="Degradado_sin_nombre_3-2" data-name="Degradado sin nombre 3" x1="67.54" y1="0" x2="67.54" y2="135.09" xlink:href="#Degradado_sin_nombre_3"/>
  </defs>
  <g id="TEXTO">
    <g>
      <polygon class="cls-1" points="74.72 56.76 74.72 60.36 78.32 60.36 94.78 43.89 91.19 40.3 74.72 56.76"/>
      <path class="cls-2" d="M67.54,0C30.24,0,0,30.24,0,67.55s30.24,67.54,67.54,67.54,67.54-30.24,67.54-67.54S104.84,0,67.54,0ZM93.83,83.52c-1.63,3.93-4.01,7.49-7.01,10.5-3,3-6.57,5.39-10.5,7.01-3.93,1.63-8.13,2.46-12.38,2.46h-28.76c-.71,0-1.4-.22-1.99-.61-.59-.4-1.05-.96-1.32-1.61-.28-.65-.35-1.38-.22-2.07s.47-1.34.97-1.84l6.15-6c-3.8-4.75-6.18-10.48-6.87-16.52-.69-6.04.34-12.16,2.96-17.65,2.63-5.49,6.75-10.12,11.89-13.37,5.14-3.25,11.1-4.99,17.18-5.01.95,0,1.87.38,2.54,1.05s1.05,1.59,1.05,2.54-.38,1.87-1.05,2.54c-.67.67-1.59,1.05-2.54,1.05-4.98,0-9.84,1.48-13.98,4.24-4.14,2.77-7.36,6.7-9.27,11.29-1.9,4.6-2.4,9.66-1.43,14.54.97,4.88,3.37,9.36,6.89,12.88.34.33.6.73.79,1.17.18.44.28.91.28,1.38s-.09.94-.28,1.38c-.18.44-.45.84-.79,1.17l-2.3,2.26h20.09c6.67,0,13.07-2.65,17.79-7.37,4.72-4.72,7.37-11.12,7.37-17.79,0-.95.38-1.87,1.05-2.54s1.59-1.05,2.54-1.05,1.87.38,2.54,1.05c.67.67,1.05,1.59,1.05,2.54,0,4.25-.84,8.46-2.46,12.38ZM102.44,46.45l-20.06,20.06c-.34.33-.73.6-1.17.78-.44.18-.91.27-1.38.27h-8.7c-.95,0-1.87-.38-2.54-1.05-.67-.67-1.05-1.59-1.05-2.54v-8.7c0-.47.09-.94.27-1.38.18-.44.44-.84.78-1.17l20.06-20.06c.67-.67,1.58-1.05,2.53-1.05s1.86.38,2.53,1.05l8.74,8.74c.67.67,1.05,1.58,1.05,2.53s-.38,1.86-1.05,2.53Z"/>
    </g>
  </g>
</svg>