<?xml version="1.0" encoding="UTF-8"?>
<svg id="Capa_2" data-name="Capa 2" xmlns="http://www.w3.org/2000/svg" viewBox="0 0 189.89 1024.81">
  <defs>
    <style>
      .cls-1 {
        stroke-width: 0px;
      }

      .cls-1, .cls-2 {
        fill: #295474;
      }

      .cls-3 {
        opacity: .7;
      }

      .cls-2 {
        font-family: MuseoModerno-Medium, MuseoModerno;
        font-size: 20px;
        font-weight: 500;
      }

      .cls-4 {
        fill: none;
        opacity: .4;
        stroke: #295474;
        stroke-miterlimit: 10;
      }
    </style>
  </defs>
  <g id="TEXTO">
    <g>
      <text class="cls-2" transform="translate(.61 17)"><tspan x="0" y="0">¿Cómo Funciona?</tspan></text>
      <g class="cls-3">
        <path class="cls-1" d="M174.52,11.83c-.45.49-.67,1.18-.59,1.84.08.66.47,1.27,1.03,1.64.6.39,1.38.49,2.07.27-.22.67-.12,1.44.28,2.03.38.55,1,.93,1.67,1.01s1.37-.13,1.87-.57c.56-.49.88-1.1,1.06-1.8.17.71.5,1.32,1.06,1.8.5.44,1.2.66,1.87.57.67-.08,1.29-.46,1.67-1.01.4-.59.5-1.36.28-2.03.68.22,1.47.12,2.07-.27.56-.37.95-.98,1.03-1.64.08-.66-.14-1.34-.59-1.84-.5-.55-1.12-.87-1.84-1.04.72-.17,1.34-.49,1.84-1.04.45-.49.67-1.18.59-1.84-.08-.66-.47-1.27-1.03-1.64-.6-.39-1.38-.49-2.07-.27.23-.67.12-1.44-.28-2.03-.38-.55-1-.93-1.67-1.01-.67-.08-1.37.13-1.87.57-.56.49-.88,1.1-1.06,1.8-.17-.71-.5-1.32-1.06-1.8-.5-.44-1.2-.66-1.87-.57-.67.08-1.29.46-1.67,1.01-.4.59-.5,1.36-.28,2.03-.68-.22-1.47-.12-2.07.27-.56.37-.94.98-1.03,1.64-.08.66.14,1.34.59,1.84.5.54,1.12.87,1.84,1.04-.72.17-1.34.49-1.84,1.04ZM178.57,10.79c.93-.16,1.82-.39,2.63-.7.31-.79.55-1.67.71-2.58.16.91.39,1.79.71,2.58.8.31,1.7.53,2.63.7-.93.16-1.82.39-2.63.7-.31.79-.55,1.67-.71,2.58-.16-.91-.4-1.79-.71-2.58-.8-.31-1.7-.54-2.63-.7Z"/>
      </g>
      <path class="cls-4" d="M181.9,17.34v989.51c0,9.65-7.82,17.47-17.47,17.47h-5.22"/>
    </g>
  </g>
</svg>