<?xml version="1.0" encoding="UTF-8"?>
<svg id="Capa_2" data-name="Capa 2" xmlns="http://www.w3.org/2000/svg" viewBox="0 0 83.53 83.53">
  <defs>
    <style>
      .cls-1 {
        fill: #00683e;
        stroke-width: 0px;
      }
    </style>
  </defs>
  <g id="TEXTO">
    <path class="cls-1" d="M38.8,55.5c-.18.2-.35.41-.5.63-.16.23-.28.49-.38.75-.12.24-.2.49-.25.75-.02.28-.02.56,0,.84-.01.55.1,1.09.33,1.59.19.52.49.99.88,1.38.39.39.86.69,1.38.88.5.22,1.04.33,1.59.33s1.09-.11,1.59-.33c.52-.19.99-.49,1.38-.88.39-.39.69-.86.88-1.38.19-.51.27-1.05.25-1.59,0-.55-.1-1.09-.31-1.6-.21-.51-.51-.97-.9-1.36-.39-.39-.85-.7-1.36-.91-.51-.21-1.05-.32-1.61-.32s-1.1.11-1.61.32c-.51.21-.97.52-1.36.91ZM41.76,0c-8.26,0-16.33,2.45-23.2,7.04-6.87,4.59-12.22,11.11-15.38,18.74C.02,33.41-.81,41.81.8,49.91c1.61,8.1,5.59,15.54,11.43,21.38,5.84,5.84,13.28,9.82,21.38,11.43,8.1,1.61,16.5.78,24.13-2.38,7.63-3.16,14.15-8.51,18.74-15.38,4.59-6.87,7.04-14.94,7.04-23.2,0-5.48-1.08-10.92-3.18-15.98-2.1-5.07-5.17-9.67-9.05-13.55-3.88-3.88-8.48-6.95-13.55-9.05-5.07-2.1-10.5-3.18-15.98-3.18ZM41.76,75.17c-6.61,0-13.07-1.96-18.56-5.63-5.49-3.67-9.78-8.89-12.31-14.99-2.53-6.11-3.19-12.82-1.9-19.3,1.29-6.48,4.47-12.43,9.14-17.11,4.67-4.67,10.63-7.85,17.11-9.14,6.48-1.29,13.2-.63,19.3,1.9,6.11,2.53,11.32,6.81,14.99,12.31,3.67,5.49,5.63,11.95,5.63,18.56,0,8.86-3.52,17.36-9.79,23.63-6.27,6.27-14.76,9.79-23.63,9.79ZM41.76,20.88c-2.2,0-4.36.58-6.27,1.68-1.91,1.1-3.49,2.68-4.59,4.59-.3.48-.51,1.01-.6,1.56-.09.56-.07,1.12.06,1.67.13.55.38,1.06.72,1.51.34.45.76.83,1.25,1.11.49.28,1.03.46,1.59.53.56.07,1.13.02,1.67-.13.54-.16,1.04-.42,1.48-.78.44-.36.8-.8,1.06-1.3.37-.64.9-1.17,1.54-1.53.64-.37,1.36-.56,2.1-.56,1.11,0,2.17.44,2.95,1.22.78.78,1.22,1.85,1.22,2.95s-.44,2.17-1.22,2.95c-.78.78-1.85,1.22-2.95,1.22s-2.17.44-2.95,1.22c-.78.78-1.22,1.85-1.22,2.95v4.18c0,1.11.44,2.17,1.22,2.95.78.78,1.85,1.22,2.95,1.22s2.17-.44,2.95-1.22c.78-.78,1.22-1.85,1.22-2.95v-.75c2.76-1,5.08-2.94,6.56-5.48,1.48-2.54,2.01-5.52,1.51-8.42-.5-2.9-2-5.52-4.24-7.43-2.24-1.9-5.08-2.96-8.01-2.98Z"/>
  </g>
</svg>