<?xml version="1.0" encoding="UTF-8"?>
<svg id="Capa_2" data-name="Capa 2" xmlns="http://www.w3.org/2000/svg" xmlns:xlink="http://www.w3.org/1999/xlink" viewBox="0 0 135.08 135.09">
  <defs>
    <style>
      .cls-1 {
        fill: url(#Degradado_sin_nombre_3);
      }

      .cls-1, .cls-2 {
        stroke-width: 0px;
      }

      .cls-2 {
        fill: url(#Degradado_sin_nombre_3-2);
      }
    </style>
    <linearGradient id="Degradado_sin_nombre_3" data-name="Degradado sin nombre 3" x1="78.03" y1="41.92" x2="78.03" y2="73.41" gradientUnits="userSpaceOnUse">
      <stop offset="0" stop-color="#4dd485"/>
      <stop offset="1" stop-color="#00683e"/>
    </linearGradient>
    <linearGradient id="Degradado_sin_nombre_3-2" data-name="Degradado sin nombre 3" x1="67.54" y1="0" x2="67.54" y2="135.09" xlink:href="#Degradado_sin_nombre_3"/>
  </defs>
  <g id="TEXTO">
    <g>
      <path class="cls-1" d="M95.53,41.92h-34.98c-.93,0-1.82.37-2.47,1.02-.66.66-1.02,1.55-1.02,2.47v24.49c0,.93.37,1.82,1.02,2.47.66.66,1.55,1.02,2.47,1.02h34.98c.93,0,1.82-.37,2.47-1.02.66-.66,1.02-1.55,1.02-2.47v-24.49c0-.93-.37-1.82-1.02-2.47-.66-.66-1.55-1.02-2.47-1.02ZM91.71,63.04c-.31.8-.8,1.51-1.44,2.07-.64.56-1.41.96-2.24,1.16-.83.2-1.7.19-2.52-.02s-1.59-.62-2.22-1.2c-.75.68-1.69,1.13-2.69,1.3-1,.16-2.03.03-2.96-.38-.93-.41-1.72-1.08-2.27-1.94-.55-.85-.85-1.85-.85-2.86s.3-2.01.85-2.86c.55-.85,1.35-1.52,2.27-1.94s1.96-.54,2.96-.38c1,.16,1.94.61,2.69,1.3.96-.87,2.2-1.36,3.5-1.36.85,0,1.7.2,2.45.59.76.39,1.41.97,1.89,1.67.49.7.79,1.51.89,2.36.1.85,0,1.71-.31,2.5Z"/>
      <path class="cls-2" d="M67.54,0C30.24,0,0,30.24,0,67.55s30.24,67.54,67.54,67.54,67.54-30.24,67.54-67.54S104.84,0,67.54,0ZM46.55,83.9h3.5c.93,0,1.82.37,2.47,1.02.66.66,1.02,1.55,1.02,2.47s-.37,1.82-1.02,2.47c-.66.66-1.55,1.02-2.47,1.02h-3.5c-.93,0-1.82-.37-2.47-1.02-.66-.66-1.02-1.55-1.02-2.47s.37-1.82,1.02-2.47c.66-.66,1.55-1.02,2.47-1.02ZM85.03,94.4c0,2.78-1.11,5.45-3.07,7.42-1.97,1.97-4.64,3.07-7.42,3.07h-34.98c-2.78,0-5.45-1.11-7.42-3.07-1.97-1.97-3.07-4.64-3.07-7.42v-24.49c0-2.78,1.11-5.45,3.07-7.42,1.97-1.97,4.64-3.07,7.42-3.07.93,0,1.82.37,2.47,1.02.66.66,1.02,1.55,1.02,2.47s-.37,1.82-1.02,2.47c-.66.66-1.55,1.02-2.47,1.02s-1.82.37-2.47,1.02-1.02,1.55-1.02,2.47v3.5h3.5c.93,0,1.82.37,2.47,1.02.66.66,1.02,1.55,1.02,2.47s-.37,1.82-1.02,2.47c-.66.66-1.55,1.02-2.47,1.02h-3.5v13.99c0,.93.37,1.82,1.02,2.47.66.66,1.55,1.02,2.47,1.02h34.98c.93,0,1.82-.37,2.47-1.02.66-.66,1.02-1.55,1.02-2.47v-3.5c0-.93.37-1.82,1.02-2.47s1.55-1.02,2.47-1.02,1.82.37,2.47,1.02c.66.66,1.02,1.55,1.02,2.47v3.5ZM106.02,69.91c0,2.78-1.11,5.45-3.07,7.42-1.97,1.97-4.64,3.07-7.42,3.07h-34.98c-2.78,0-5.45-1.11-7.42-3.07-1.97-1.97-3.07-4.64-3.07-7.42v-24.49c0-2.78,1.11-5.45,3.07-7.42s4.64-3.07,7.42-3.07h34.98c2.78,0,5.45,1.11,7.42,3.07s3.07,4.64,3.07,7.42v24.49Z"/>
    </g>
  </g>
</svg>