<?xml version="1.0" encoding="UTF-8"?>
<svg id="Capa_2" data-name="Capa 2" xmlns="http://www.w3.org/2000/svg" xmlns:xlink="http://www.w3.org/1999/xlink" viewBox="0 0 19.26 19.26">
  <defs>
    <style>
      .cls-1 {
        fill: url(#Degradado_sin_nombre_3);
      }

      .cls-1, .cls-2, .cls-3 {
        stroke-width: 0px;
      }

      .cls-2 {
        fill: url(#Degradado_sin_nombre_3-2);
      }

      .cls-3 {
        fill: url(#Degradado_sin_nombre_3-3);
      }
    </style>
    <linearGradient id="Degradado_sin_nombre_3" data-name="Degradado sin nombre 3" x1="0" y1="9.63" x2="19.26" y2="9.63" gradientUnits="userSpaceOnUse">
      <stop offset="0" stop-color="#4dd485"/>
      <stop offset="1" stop-color="#00683e"/>
    </linearGradient>
    <linearGradient id="Degradado_sin_nombre_3-2" data-name="Degradado sin nombre 3" x1="13.6" y1="4.57" x2="15.86" y2="4.57" xlink:href="#Degradado_sin_nombre_3"/>
    <linearGradient id="Degradado_sin_nombre_3-3" data-name="Degradado sin nombre 3" x1="4.97" y1="9.63" x2="14.45" y2="9.63" xlink:href="#Degradado_sin_nombre_3"/>
  </defs>
  <g id="TEXTO">
    <g>
      <path class="cls-1" d="M13.47,0h-7.68C2.6,0,0,2.6,0,5.78v7.69c0,3.19,2.6,5.78,5.79,5.78h7.68c3.19,0,5.78-2.6,5.78-5.78v-7.69c0-3.19-2.6-5.78-5.78-5.78ZM17.45,13.47c0,2.19-1.78,3.97-3.98,3.97h-7.68c-2.19,0-3.98-1.78-3.98-3.97v-7.69c0-2.19,1.78-3.97,3.98-3.97h7.68c2.19,0,3.98,1.78,3.98,3.97v7.69Z"/>
      <path class="cls-2" d="M15.86,4.57c0,.62-.5,1.13-1.13,1.13s-1.13-.5-1.13-1.13.5-1.13,1.13-1.13,1.13.51,1.13,1.13Z"/>
      <path class="cls-3" d="M9.71,4.88c-2.61,0-4.74,2.13-4.74,4.74s2.13,4.74,4.74,4.74,4.74-2.13,4.74-4.74-2.13-4.74-4.74-4.74ZM9.71,12.67c-1.67,0-3.03-1.37-3.03-3.04s1.36-3.03,3.03-3.03,3.04,1.36,3.04,3.03-1.37,3.04-3.04,3.04Z"/>
    </g>
  </g>
</svg>