<?xml version="1.0" encoding="UTF-8"?>
<svg id="Capa_2" data-name="Capa 2" xmlns="http://www.w3.org/2000/svg" viewBox="0 0 104.41 104.41">
  <defs>
    <style>
      .cls-1 {
        fill: #00683e;
        stroke-width: 0px;
      }
    </style>
  </defs>
  <g id="TEXTO">
    <path class="cls-1" d="M48.5,69.38c-.22.25-.43.51-.63.78-.2.29-.36.61-.47.94-.15.3-.26.61-.31.94-.03.35-.03.7,0,1.04-.02.68.13,1.36.42,1.98.23.65.61,1.24,1.1,1.72.49.49,1.08.86,1.72,1.1.62.28,1.3.42,1.98.42s1.36-.14,1.98-.42c.65-.23,1.24-.61,1.72-1.1.49-.49.86-1.08,1.1-1.72.23-.63.34-1.31.31-1.98,0-.69-.13-1.37-.39-2-.26-.64-.64-1.21-1.13-1.7-.49-.49-1.06-.88-1.7-1.14-.64-.27-1.32-.4-2.01-.4s-1.37.14-2.01.4c-.64.27-1.21.65-1.7,1.14ZM52.2,0c-10.33,0-20.42,3.06-29,8.8C14.62,14.53,7.93,22.69,3.97,32.23.02,41.77-1.01,52.26,1,62.39c2.01,10.13,6.99,19.43,14.29,26.73,7.3,7.3,16.6,12.27,26.73,14.29,10.13,2.01,20.62.98,30.16-2.97,9.54-3.95,17.69-10.64,23.43-19.23,5.74-8.59,8.8-18.68,8.8-29,0-6.86-1.35-13.64-3.97-19.98-2.62-6.33-6.47-12.09-11.32-16.94-4.85-4.85-10.6-8.69-16.94-11.32-6.33-2.62-13.12-3.97-19.98-3.97ZM52.2,93.97c-8.26,0-16.33-2.45-23.2-7.04-6.87-4.59-12.22-11.11-15.38-18.74-3.16-7.63-3.99-16.03-2.38-24.13,1.61-8.1,5.59-15.54,11.43-21.38,5.84-5.84,13.28-9.82,21.38-11.43,8.1-1.61,16.5-.78,24.13,2.38,7.63,3.16,14.15,8.51,18.74,15.38,4.59,6.87,7.04,14.94,7.04,23.2,0,11.08-4.4,21.7-12.23,29.53-7.83,7.83-18.46,12.23-29.53,12.23ZM52.2,26.1c-2.75,0-5.45.72-7.84,2.1-2.38,1.37-4.36,3.35-5.74,5.73-.38.59-.63,1.26-.75,1.95-.11.69-.09,1.41.08,2.09.17.68.47,1.33.89,1.89.42.56.95,1.04,1.56,1.39.61.35,1.28.58,1.98.66.7.08,1.41.03,2.08-.17.68-.2,1.31-.53,1.85-.97.54-.45.99-1,1.32-1.62.46-.8,1.12-1.46,1.92-1.92.8-.46,1.7-.7,2.62-.69,1.38,0,2.71.55,3.69,1.53.98.98,1.53,2.31,1.53,3.69s-.55,2.71-1.53,3.69c-.98.98-2.31,1.53-3.69,1.53s-2.71.55-3.69,1.53c-.98.98-1.53,2.31-1.53,3.69v5.22c0,1.38.55,2.71,1.53,3.69.98.98,2.31,1.53,3.69,1.53s2.71-.55,3.69-1.53c.98-.98,1.53-2.31,1.53-3.69v-.94c3.45-1.25,6.36-3.68,8.2-6.86,1.84-3.18,2.51-6.9,1.89-10.52-.62-3.62-2.5-6.91-5.3-9.28-2.8-2.38-6.35-3.7-10.02-3.72Z"/>
  </g>
</svg>