<?xml version="1.0" encoding="UTF-8"?>
<svg id="Capa_2" data-name="Capa 2" xmlns="http://www.w3.org/2000/svg" xmlns:xlink="http://www.w3.org/1999/xlink" viewBox="0 0 31.98 31.98">
  <defs>
    <style>
      .cls-1 {
        fill: url(#Degradado_sin_nombre_3);
      }

      .cls-1, .cls-2, .cls-3 {
        stroke-width: 0px;
      }

      .cls-2 {
        fill: url(#Degradado_sin_nombre_3-2);
      }

      .cls-3 {
        fill: url(#Degradado_sin_nombre_3-3);
      }
    </style>
    <linearGradient id="Degradado_sin_nombre_3" data-name="Degradado sin nombre 3" x1="0" y1="15.99" x2="31.98" y2="15.99" gradientUnits="userSpaceOnUse">
      <stop offset="0" stop-color="#4dd485"/>
      <stop offset="1" stop-color="#00683e"/>
    </linearGradient>
    <linearGradient id="Degradado_sin_nombre_3-2" data-name="Degradado sin nombre 3" x1="22.59" y1="7.58" x2="26.34" y2="7.58" xlink:href="#Degradado_sin_nombre_3"/>
    <linearGradient id="Degradado_sin_nombre_3-3" data-name="Degradado sin nombre 3" x1="8.26" y1="15.99" x2="24.01" y2="15.99" xlink:href="#Degradado_sin_nombre_3"/>
  </defs>
  <g id="TEXTO">
    <g>
      <path class="cls-1" d="M22.38,0h-12.76C4.31,0,0,4.31,0,9.6v12.77c0,5.29,4.31,9.6,9.62,9.6h12.76c5.29,0,9.6-4.31,9.6-9.6v-12.77c0-5.29-4.31-9.6-9.6-9.6ZM28.98,22.38c0,3.63-2.96,6.59-6.61,6.59h-12.76c-3.64,0-6.61-2.96-6.61-6.59v-12.77c0-3.63,2.96-6.59,6.61-6.59h12.76c3.64,0,6.61,2.96,6.61,6.59v12.77Z"/>
      <path class="cls-2" d="M26.34,7.59c0,1.03-.84,1.87-1.87,1.87s-1.88-.84-1.88-1.87.84-1.88,1.88-1.88,1.87.85,1.87,1.88Z"/>
      <path class="cls-3" d="M16.13,8.11c-4.33,0-7.87,3.53-7.87,7.88s3.53,7.88,7.87,7.88,7.88-3.53,7.88-7.88-3.53-7.88-7.88-7.88ZM16.13,21.04c-2.78,0-5.04-2.27-5.04-5.05s2.26-5.04,5.04-5.04,5.05,2.26,5.05,5.04-2.27,5.05-5.05,5.05Z"/>
    </g>
  </g>
</svg>