<?xml version="1.0" encoding="UTF-8"?>
<svg id="Capa_2" data-name="Capa 2" xmlns="http://www.w3.org/2000/svg" viewBox="0 0 379.95 1012.95">
  <defs>
    <style>
      .cls-1 {
        stroke-width: 0px;
      }

      .cls-1, .cls-2 {
        fill: #295474;
      }

      .cls-3 {
        opacity: .7;
      }

      .cls-4 {
        letter-spacing: -.06em;
      }

      .cls-5 {
        letter-spacing: -.02em;
      }

      .cls-6 {
        letter-spacing: -.05em;
      }

      .cls-2 {
        font-family: MuseoModerno-Medium, MuseoModerno;
        font-size: 20px;
        font-weight: 500;
      }

      .cls-7 {
        fill: none;
        opacity: .4;
        stroke: #295474;
        stroke-miterlimit: 10;
      }
    </style>
  </defs>
  <g id="TEXTO">
    <g>
      <text class="cls-2" transform="translate(24.51 17)"><tspan x="0" y="0">Con</tspan><tspan class="cls-5" x="35.48" y="0">t</tspan><tspan x="43.36" y="0">ác</tspan><tspan class="cls-5" x="64.28" y="0">t</tspan><tspan x="72.16" y="0">anos,</tspan><tspan class="cls-4" x="125.32" y="0"> </tspan><tspan class="cls-6" x="129.42" y="0">T</tspan><tspan x="139.72" y="0">érminos y Condiciones</tspan></text>
      <g class="cls-3">
        <path class="cls-1" d="M13.53,10.79c.72-.17,1.34-.49,1.84-1.04.45-.49.67-1.18.59-1.84-.08-.66-.47-1.27-1.03-1.64-.6-.39-1.38-.49-2.07-.27.22-.67.12-1.44-.28-2.03-.38-.55-1-.93-1.67-1.01-.67-.08-1.37.13-1.87.57-.56.49-.88,1.1-1.06,1.8-.17-.71-.5-1.32-1.06-1.8-.5-.44-1.2-.66-1.87-.57-.67.08-1.29.46-1.67,1.01-.4.59-.5,1.36-.28,2.03-.68-.22-1.47-.12-2.07.27C.49,6.65.1,7.26.02,7.92c-.08.66.14,1.34.59,1.84.5.54,1.12.87,1.84,1.04-.72.17-1.34.49-1.84,1.04-.45.49-.67,1.18-.59,1.84.08.66.47,1.27,1.03,1.64.6.39,1.38.49,2.07.27-.23.67-.12,1.44.28,2.03.38.55,1,.93,1.67,1.01.67.08,1.37-.13,1.87-.57.56-.49.88-1.1,1.06-1.8.17.71.5,1.32,1.06,1.8.5.44,1.2.66,1.87.57s1.29-.46,1.67-1.01c.4-.59.5-1.36.28-2.03.68.22,1.47.12,2.07-.27.56-.37.94-.98,1.03-1.64.08-.66-.14-1.34-.59-1.84-.5-.55-1.12-.87-1.84-1.04ZM8.7,11.49c-.31.79-.55,1.67-.71,2.58-.16-.91-.39-1.79-.71-2.58-.8-.31-1.7-.54-2.63-.7.93-.16,1.82-.39,2.63-.7.31-.79.55-1.67.71-2.58.16.91.4,1.79.71,2.58.8.31,1.7.53,2.63.7-.93.16-1.82.39-2.63.7Z"/>
      </g>
      <path class="cls-7" d="M7.99,17.34v980.1c0,8.29,6.72,15.01,15.01,15.01h7.67"/>
    </g>
  </g>
</svg>