<?xml version="1.0" encoding="UTF-8"?>
<svg id="Capa_2" data-name="Capa 2" xmlns="http://www.w3.org/2000/svg" viewBox="0 0 325.64 86.43">
  <defs>
    <style>
      .cls-1 {
        fill: #ffb600;
      }

      .cls-1, .cls-2, .cls-3 {
        stroke-width: 0px;
      }

      .cls-2 {
        fill: #000;
      }

      .cls-3 {
        fill: #fff;
      }
    </style>
  </defs>
  <g id="TEXTO">
    <g>
      <path class="cls-2" d="M138.52,8.12c-.4.73-1.02,1.32-1.86,1.76-.84.45-1.87.67-3.11.67h-2.29v5.45h-3.7V.82h5.99c1.21,0,2.23.21,3.07.63.84.42,1.46.99,1.88,1.73.42.74.63,1.58.63,2.53,0,.88-.2,1.68-.61,2.41ZM134.85,7.12c.35-.33.52-.8.52-1.41s-.17-1.07-.52-1.41c-.35-.33-.87-.5-1.58-.5h-2.01v3.81h2.01c.71,0,1.23-.17,1.58-.5Z"/>
      <path class="cls-2" d="M142.27,15.42c-.94-.5-1.69-1.23-2.23-2.16-.54-.94-.81-2.03-.81-3.29s.27-2.33.82-3.28c.55-.94,1.3-1.67,2.25-2.17.95-.51,2.02-.76,3.2-.76s2.25.25,3.2.76c.95.5,1.7,1.23,2.25,2.17.55.94.82,2.04.82,3.28s-.28,2.33-.83,3.28c-.56.94-1.31,1.67-2.27,2.17-.96.51-2.03.76-3.21.76s-2.25-.25-3.19-.76ZM147.27,12.2c.5-.52.75-1.26.75-2.23s-.24-1.71-.72-2.23c-.48-.52-1.08-.78-1.78-.78s-1.32.26-1.8.77c-.48.51-.71,1.26-.71,2.24s.23,1.71.7,2.23c.47.52,1.06.78,1.76.78s1.31-.26,1.81-.78Z"/>
      <path class="cls-2" d="M169.99,3.94l-3.27,12.07h-4.09l-1.9-7.83-1.97,7.83h-4.07l-3.29-12.07h3.7l1.71,8.63,2.03-8.63h3.91l2.05,8.59,1.69-8.59h3.48Z"/>
      <path class="cls-2" d="M181.63,10.86h-8.37c.06.75.3,1.32.72,1.72.43.4.95.59,1.57.59.92,0,1.56-.39,1.92-1.17h3.94c-.2.79-.57,1.51-1.09,2.14-.53.63-1.19,1.13-1.98,1.49-.79.36-1.68.54-2.66.54-1.18,0-2.24-.25-3.16-.76-.92-.5-1.64-1.23-2.16-2.16-.52-.94-.78-2.03-.78-3.29s.26-2.35.77-3.29c.51-.94,1.23-1.66,2.15-2.16.92-.51,1.98-.76,3.18-.76s2.21.25,3.11.74,1.62,1.19,2.13,2.1c.51.91.77,1.97.77,3.18,0,.35-.02.71-.06,1.08ZM177.91,8.8c0-.63-.22-1.14-.65-1.51-.43-.37-.97-.56-1.62-.56s-1.14.18-1.57.54-.69.87-.79,1.54h4.63Z"/>
      <path class="cls-2" d="M187.88,4.38c.65-.38,1.37-.57,2.16-.57v3.92h-1.02c-.92,0-1.62.2-2.08.59-.46.4-.69,1.09-.69,2.09v5.6h-3.7V3.94h3.7v2.01c.43-.66.97-1.19,1.62-1.57Z"/>
      <path class="cls-2" d="M202.04,10.86h-8.37c.06.75.3,1.32.72,1.72.43.4.95.59,1.57.59.92,0,1.56-.39,1.92-1.17h3.94c-.2.79-.57,1.51-1.09,2.14-.53.63-1.19,1.13-1.98,1.49-.79.36-1.68.54-2.66.54-1.18,0-2.24-.25-3.16-.76-.92-.5-1.64-1.23-2.16-2.16-.52-.94-.78-2.03-.78-3.29s.26-2.35.77-3.29c.51-.94,1.23-1.66,2.15-2.16.92-.51,1.98-.76,3.18-.76s2.21.25,3.11.74,1.62,1.19,2.13,2.1c.51.91.77,1.97.77,3.18,0,.35-.02.71-.06,1.08ZM198.32,8.8c0-.63-.22-1.14-.65-1.51-.43-.37-.97-.56-1.62-.56s-1.14.18-1.57.54-.69.87-.79,1.54h4.63Z"/>
      <path class="cls-2" d="M202.94,6.68c.47-.94,1.11-1.66,1.91-2.16.81-.51,1.71-.76,2.7-.76.79,0,1.52.17,2.17.5.66.33,1.17.78,1.55,1.34V0h3.7v16h-3.7v-1.73c-.35.58-.84,1.04-1.48,1.38-.64.35-1.39.52-2.24.52-.99,0-1.9-.26-2.7-.77-.81-.51-1.45-1.24-1.91-2.18-.47-.94-.7-2.04-.7-3.28s.23-2.33.7-3.27ZM210.51,7.79c-.51-.53-1.14-.8-1.87-.8s-1.36.26-1.87.79c-.51.53-.77,1.25-.77,2.17s.26,1.65.77,2.2c.51.54,1.14.81,1.87.81s1.36-.27,1.87-.8c.51-.53.77-1.26.77-2.18s-.26-1.65-.77-2.18Z"/>
      <path class="cls-2" d="M225.27,4.28c.65-.35,1.39-.52,2.23-.52.99,0,1.9.25,2.7.76.81.5,1.45,1.23,1.91,2.16.47.94.7,2.03.7,3.27s-.23,2.33-.7,3.28c-.47.94-1.11,1.67-1.91,2.18-.81.51-1.71.77-2.7.77-.85,0-1.59-.17-2.23-.51-.63-.34-1.13-.79-1.49-1.35v1.69h-3.7V0h3.7v5.64c.35-.56.84-1.02,1.49-1.36ZM228.29,7.77c-.51-.53-1.14-.79-1.89-.79s-1.36.27-1.87.8c-.51.53-.77,1.26-.77,2.18s.26,1.65.77,2.18c.51.53,1.14.8,1.87.8s1.36-.27,1.88-.81c.52-.54.78-1.27.78-2.2s-.26-1.65-.77-2.17Z"/>
      <path class="cls-2" d="M246.01,3.94l-7.57,17.8h-3.98l2.77-6.14-4.91-11.66h4.13l2.79,7.55,2.77-7.55h4Z"/>
    </g>
    <g>
      <path class="cls-1" d="M114.96,43.96h-50.44l3-16.98h30.46c9.38,0,16.98,7.6,16.98,16.98Z"/>
      <path class="cls-1" d="M110.73,67.22c0,10.61-8.6,19.21-19.21,19.21h-29.89l2.64-15.5h27.23c.18.03.38,0,.56,0,2.05,0,3.7-1.66,3.7-3.7s-1.66-3.7-3.7-3.7c-.19,0-.38-.03-.56,0h-7.5c-8.56,0-15.5-6.94-15.5-15.5h22.53c.16,0,.33,0,.49,0,10.61,0,19.21,8.6,19.21,19.21Z"/>
      <path class="cls-3" d="M92.07,63.52h-.56c.18-.03.38,0,.56,0Z"/>
      <path class="cls-3" d="M92.07,70.93c-.19,0-.38.03-.56,0h.56Z"/>
      <g>
        <g>
          <path class="cls-2" d="M130.59,65.87h-4.14v15.14h4.14c2.57,0,4.57-.67,5.93-1.99,1.36-1.32,2.05-3.2,2.05-5.58s-.69-4.26-2.05-5.58c-1.36-1.32-3.35-1.99-5.93-1.99ZM130.59,79.95h-3.05v-13.04h3.05c2.28,0,4.01.57,5.16,1.71,1.15,1.13,1.73,2.75,1.73,4.81s-.58,3.68-1.73,4.81c-1.15,1.13-2.88,1.71-5.16,1.71Z"/>
          <path class="cls-2" d="M143.92,65.29c-.24,0-.45.09-.62.25-.17.17-.25.39-.25.64s.09.48.25.64c.17.17.38.25.62.25s.46-.09.62-.25c.17-.17.25-.39.25-.64s-.09-.48-.25-.64c-.17-.17-.38-.25-.62-.25Z"/>
          <polygon class="cls-2" points="143.71 69.23 143.37 69.23 143.37 69.57 143.37 80.66 143.37 81.01 143.71 81.01 144.12 81.01 144.46 81.01 144.46 80.66 144.46 69.57 144.46 69.23 144.12 69.23 143.71 69.23"/>
          <path class="cls-2" d="M160.02,69.23h-.34v2.18c-.33-.48-.74-.9-1.23-1.27-.94-.7-2.1-1.05-3.44-1.05-1.11,0-2.11.25-2.98.73-.88.49-1.56,1.2-2.05,2.11-.48.9-.72,1.97-.72,3.19s.24,2.29.72,3.19c.48.91,1.17,1.62,2.05,2.11.87.49,1.87.73,2.98.73,1.34,0,2.5-.35,3.44-1.05.49-.37.91-.79,1.23-1.28v2.25c0,.87-.19,1.63-.55,2.28-.36.64-.87,1.14-1.49,1.49-.63.35-1.35.53-2.13.53-1.17,0-2.13-.27-2.87-.81-.74-.54-1.26-1.28-1.55-2.2l-.08-.24h-1.12l.13.44c.35,1.18,1,2.12,1.94,2.82.94.69,2.13,1.04,3.54,1.04.93,0,1.8-.21,2.59-.64.8-.43,1.45-1.05,1.93-1.86.48-.81.73-1.77.73-2.85v-11.84h-.73ZM155.01,80.1c-.95,0-1.78-.2-2.47-.59-.68-.39-1.22-.96-1.6-1.7-.38-.75-.58-1.65-.58-2.69s.19-1.94.58-2.69c.38-.74.92-1.31,1.6-1.7.69-.39,1.52-.59,2.47-.59.89,0,1.7.21,2.41.62.7.41,1.26.99,1.66,1.74.4.75.61,1.63.61,2.62s-.2,1.87-.61,2.62c-.4.74-.96,1.33-1.66,1.74-.7.41-1.51.62-2.41.62Z"/>
          <path class="cls-2" d="M166.61,65.29c-.24,0-.45.09-.62.25-.17.17-.25.39-.25.64s.09.48.25.64c.17.17.38.25.62.25s.46-.09.62-.25c.17-.17.25-.39.25-.64s-.09-.48-.25-.64c-.17-.17-.38-.25-.62-.25Z"/>
          <polygon class="cls-2" points="166.41 69.23 166.06 69.23 166.06 69.57 166.06 80.66 166.06 81.01 166.41 81.01 166.82 81.01 167.16 81.01 167.16 80.66 167.16 69.57 167.16 69.23 166.82 69.23 166.41 69.23"/>
          <path class="cls-2" d="M174.04,69.23v-2.83h-1.09v2.83h-1.81v1.09h1.81v7.42c0,1.17.24,1.99.72,2.49.48.51,1.26.76,2.31.76h1.55v-1.09h-1.51c-.54,0-.96-.06-1.24-.19-.25-.11-.42-.29-.54-.57-.13-.31-.2-.79-.2-1.41v-7.42h3.49v-1.09h-3.49Z"/>
          <path class="cls-2" d="M192.16,69.23h-.34v2.2c-.33-.48-.74-.91-1.23-1.28-.94-.71-2.1-1.06-3.44-1.06-1.11,0-2.11.25-2.98.73-.88.49-1.56,1.2-2.05,2.11-.48.9-.72,1.97-.72,3.19s.24,2.29.72,3.19c.48.91,1.17,1.62,2.05,2.11.87.49,1.87.73,2.98.73,1.34,0,2.5-.36,3.44-1.06.49-.37.91-.8,1.23-1.28v2.2h1.07v-11.77h-.73ZM187.15,80.1c-.95,0-1.78-.2-2.47-.59-.68-.39-1.22-.96-1.6-1.7-.38-.75-.58-1.65-.58-2.69s.19-1.94.58-2.69c.38-.74.92-1.31,1.6-1.7.69-.39,1.52-.59,2.47-.59.89,0,1.7.21,2.41.62.7.41,1.26.99,1.66,1.74.4.75.61,1.63.61,2.62s-.2,1.87-.61,2.62c-.4.74-.96,1.33-1.66,1.74-.7.41-1.51.62-2.41.62Z"/>
          <polygon class="cls-2" points="198.55 65.13 198.2 65.13 198.2 65.47 198.2 80.66 198.2 81.01 198.55 81.01 198.96 81.01 199.3 81.01 199.3 80.66 199.3 65.47 199.3 65.13 198.96 65.13 198.55 65.13"/>
          <polygon class="cls-2" points="225.88 66.28 225.66 66.28 225.57 66.48 219.86 79.29 214.14 66.48 214.05 66.28 213.82 66.28 213.41 66.28 213.07 66.28 213.07 66.62 213.07 80.66 213.07 81.01 213.41 81.01 213.82 81.01 214.17 81.01 214.17 80.66 214.17 69.22 219.35 80.8 219.44 81.01 219.66 81.01 220.07 81.01 220.29 81.01 220.38 80.8 225.54 69.23 225.54 80.66 225.54 81.01 225.88 81.01 226.29 81.01 226.63 81.01 226.63 80.66 226.63 66.62 226.63 66.28 226.29 66.28 225.88 66.28"/>
          <path class="cls-2" d="M242.19,69.23h-.34v2.2c-.33-.48-.74-.91-1.23-1.28-.94-.71-2.1-1.06-3.44-1.06-1.11,0-2.11.25-2.98.73-.88.49-1.56,1.2-2.05,2.11-.48.9-.72,1.97-.72,3.19s.24,2.29.72,3.19c.48.91,1.17,1.62,2.05,2.11.87.49,1.87.73,2.98.73,1.34,0,2.5-.36,3.44-1.06.49-.37.91-.8,1.23-1.28v2.2h1.07v-11.77h-.73ZM237.18,80.1c-.95,0-1.78-.2-2.47-.59-.68-.39-1.22-.96-1.6-1.7-.38-.75-.58-1.65-.58-2.69s.19-1.94.58-2.69c.38-.74.92-1.31,1.6-1.7.69-.39,1.52-.59,2.47-.59.89,0,1.7.21,2.41.62.7.41,1.26.99,1.66,1.74.4.75.61,1.63.61,2.62s-.2,1.87-.61,2.62c-.4.74-.96,1.33-1.66,1.74-.7.41-1.51.62-2.41.62Z"/>
          <path class="cls-2" d="M249.32,70.63v-1.4h-1.09v11.77h1.09v-6.93c0-1.39.37-2.41,1.1-3.01.75-.62,1.67-.94,2.75-.94h.53v-1.13h-.34c-1.89,0-3.24.55-4.03,1.64Z"/>
          <polygon class="cls-2" points="259.05 75.08 264.28 69.81 264.86 69.23 264.04 69.23 263.44 69.23 263.3 69.23 263.2 69.33 258.77 73.82 258.77 65.47 258.77 65.13 258.43 65.13 258.02 65.13 257.68 65.13 257.68 65.47 257.68 80.66 257.68 81.01 258.02 81.01 258.43 81.01 258.77 81.01 258.77 80.66 258.77 76.3 263.3 80.9 263.4 81.01 263.54 81.01 264.12 81.01 264.94 81.01 264.36 80.42 259.05 75.08"/>
          <path class="cls-2" d="M278.15,76.56h-.29l-.05.29c-.16,1.01-.62,1.79-1.41,2.37-.78.58-1.77.88-2.94.88-.82,0-1.58-.18-2.27-.53-.68-.35-1.24-.88-1.66-1.59-.38-.63-.6-1.42-.65-2.34h9.97l.02-.32c.01-.26.02-.64.02-1.13,0-.86-.21-1.69-.63-2.46-.42-.78-1.04-1.42-1.86-1.91-.82-.49-1.81-.74-2.95-.74s-2.06.24-2.92.72c-.86.48-1.55,1.19-2.03,2.11-.48.91-.73,1.98-.73,3.2s.24,2.29.73,3.2c.49.92,1.17,1.63,2.03,2.11.86.48,1.84.72,2.92.72,1.48,0,2.72-.39,3.67-1.15.96-.77,1.55-1.79,1.76-3.03l.07-.4h-.81ZM273.46,70.14c.8,0,1.56.18,2.26.53.68.34,1.23.87,1.62,1.58.36.63.53,1.42.51,2.35h-8.97c.05-.92.27-1.71.65-2.34.42-.71.98-1.24,1.66-1.59.69-.35,1.45-.53,2.27-.53Z"/>
          <path class="cls-2" d="M285.26,69.23v-2.83h-1.09v2.83h-1.81v1.09h1.81v7.42c0,1.17.24,1.99.72,2.49.48.51,1.26.76,2.31.76h1.55v-1.09h-1.51c-.54,0-.96-.06-1.24-.19-.25-.11-.43-.29-.54-.57-.13-.31-.2-.79-.2-1.41v-7.42h3.49v-1.09h-3.49Z"/>
          <polygon class="cls-2" points="293.49 69.23 293.15 69.23 293.15 69.57 293.15 80.66 293.15 81.01 293.49 81.01 293.9 81.01 294.24 81.01 294.24 80.66 294.24 69.57 294.24 69.23 293.9 69.23 293.49 69.23"/>
          <path class="cls-2" d="M293.69,65.29c-.24,0-.45.09-.62.25-.17.17-.25.39-.25.64s.09.48.25.64c.17.17.38.25.62.25s.46-.09.62-.25c.17-.17.25-.39.25-.64s-.09-.48-.25-.64c-.17-.17-.38-.25-.62-.25Z"/>
          <path class="cls-2" d="M304.66,68.99c-1.15,0-2.15.29-2.99.87-.41.28-.75.62-1.03,1.03v-1.65h-1.09v11.77h1.09v-6.24c0-1.57.37-2.77,1.1-3.56.73-.79,1.69-1.17,2.91-1.17s2.07.34,2.73,1.03c.66.69.99,1.73.99,3.08v6.85h1.07v-6.81c0-1.72-.46-3.03-1.36-3.9-.9-.87-2.06-1.31-3.44-1.31Z"/>
          <path class="cls-2" d="M325.3,69.23h-.73v2.18c-.33-.48-.74-.9-1.23-1.27-.94-.7-2.1-1.05-3.44-1.05-1.11,0-2.11.25-2.98.73-.88.49-1.56,1.2-2.05,2.11-.48.9-.72,1.97-.72,3.19s.24,2.29.72,3.19c.48.91,1.17,1.62,2.05,2.11.87.49,1.87.73,2.98.73,1.34,0,2.5-.35,3.44-1.05.49-.37.91-.79,1.23-1.28v2.25c0,.87-.19,1.63-.55,2.28-.36.64-.87,1.14-1.49,1.49-.63.35-1.35.53-2.13.53-1.17,0-2.13-.27-2.87-.81-.74-.54-1.26-1.28-1.55-2.2l-.08-.24h-1.12l.13.44c.35,1.18,1,2.12,1.94,2.82.94.69,2.13,1.04,3.54,1.04.93,0,1.8-.21,2.59-.64.8-.43,1.45-1.05,1.93-1.86.48-.81.73-1.77.73-2.85v-11.84h-.34ZM324.57,75.12c0,.99-.2,1.87-.61,2.62-.4.74-.96,1.33-1.66,1.74-.7.41-1.51.62-2.41.62-.95,0-1.78-.2-2.47-.59-.68-.39-1.22-.96-1.6-1.7-.38-.75-.58-1.65-.58-2.69s.19-1.94.58-2.69c.38-.74.92-1.31,1.6-1.7.69-.39,1.52-.59,2.47-.59.89,0,1.7.21,2.41.62.7.41,1.26.99,1.66,1.74.4.75.61,1.63.61,2.62Z"/>
        </g>
        <path class="cls-1" d="M152.63,58.68h-6.02l-13.64-21.53v21.53h-6.02v-31.41h6.02l13.64,21.57v-21.71h6.02v31.55Z"/>
        <path class="cls-2" d="M156.73,33.18c-.7-.67-1.05-1.51-1.05-2.52s.35-1.84,1.05-2.52c.7-.67,1.58-1.01,2.65-1.01s1.94.34,2.65,1.01c.7.67,1.05,1.51,1.05,2.52s-.35,1.84-1.05,2.52c-.7.67-1.59,1.01-2.65,1.01s-1.94-.34-2.65-1.01ZM162.39,35.53v23.15h-6.02v-23.15h6.02Z"/>
        <path class="cls-2" d="M180.25,58.68l-8.09-8.78v8.78h-6.02v-31.55h6.02v17.82l8-10.11h7.83l-10.5,11.96,10.59,11.88h-7.83Z"/>
        <path class="cls-2" d="M192.68,57.54c-1.84-1.02-3.28-2.46-4.32-4.32-1.05-1.86-1.57-4.02-1.57-6.45s.54-4.59,1.61-6.45c1.08-1.86,2.55-3.31,4.41-4.32,1.86-1.02,3.94-1.53,6.24-1.53s4.37.51,6.24,1.53c1.86,1.02,3.33,2.46,4.41,4.32,1.08,1.87,1.61,4.02,1.61,6.45s-.55,4.59-1.66,6.45c-1.1,1.87-2.6,3.31-4.48,4.32-1.88,1.02-3.98,1.53-6.3,1.53s-4.36-.51-6.2-1.53ZM201.95,53.02c.96-.53,1.73-1.33,2.3-2.39.57-1.06.86-2.35.86-3.87,0-2.27-.6-4.01-1.79-5.23-1.19-1.22-2.65-1.83-4.37-1.83s-3.16.61-4.32,1.83c-1.16,1.22-1.74,2.96-1.74,5.23s.57,4.01,1.7,5.23c1.13,1.22,2.56,1.83,4.28,1.83,1.09,0,2.12-.26,3.08-.8Z"/>
        <path class="cls-2" d="M220.35,27.13v31.55h-6.02v-31.55h6.02Z"/>
        <path class="cls-2" d="M223.99,40.26c.96-1.86,2.27-3.3,3.92-4.3,1.65-1,3.49-1.51,5.53-1.51,1.78,0,3.33.36,4.67,1.08,1.33.72,2.4,1.62,3.21,2.71v-3.4h6.07v23.84h-6.07v-3.49c-.77,1.12-1.84,2.04-3.21,2.78-1.36.73-2.93,1.1-4.71,1.1-2.01,0-3.84-.52-5.49-1.55-1.65-1.03-2.96-2.49-3.92-4.37-.96-1.88-1.44-4.04-1.44-6.48s.48-4.55,1.44-6.41ZM240.45,42.99c-.57-1.05-1.35-1.85-2.32-2.41-.98-.56-2.02-.84-3.14-.84s-2.15.27-3.1.82c-.95.55-1.71,1.34-2.3,2.39-.59,1.05-.88,2.29-.88,3.72s.29,2.69.88,3.77c.59,1.08,1.36,1.9,2.32,2.47.96.57,1.99.86,3.08.86s2.17-.28,3.14-.84c.97-.56,1.75-1.36,2.32-2.41.57-1.05.86-2.3.86-3.77s-.29-2.72-.86-3.77Z"/>
        <path class="cls-1" d="M255.79,57.87c-1.68-.74-3.01-1.81-3.98-3.21-.98-1.4-1.48-3.04-1.51-4.94h6.45c.09,1.28.52,2.29,1.31,3.03.79.74,1.87,1.11,3.25,1.11s2.51-.35,3.31-1.05c.8-.7,1.2-1.61,1.2-2.74,0-.92-.27-1.68-.82-2.27-.55-.59-1.23-1.06-2.04-1.4-.82-.34-1.94-.72-3.38-1.14-1.95-.59-3.54-1.18-4.75-1.76-1.22-.58-2.27-1.45-3.14-2.63-.88-1.17-1.31-2.74-1.31-4.7,0-1.84.44-3.44,1.33-4.81.89-1.37,2.14-2.41,3.74-3.14,1.61-.73,3.44-1.09,5.51-1.09,3.1,0,5.62.78,7.55,2.34,1.94,1.56,3,3.73,3.21,6.53h-6.63c-.06-1.07-.49-1.95-1.31-2.65-.82-.7-1.9-1.05-3.25-1.05-1.18,0-2.12.31-2.82.94-.7.62-1.05,1.53-1.05,2.72,0,.83.26,1.52.8,2.07.53.55,1.19,1,1.98,1.34.79.34,1.9.73,3.33,1.18,1.95.59,3.54,1.19,4.78,1.78,1.23.59,2.29,1.49,3.18,2.67.89,1.19,1.33,2.75,1.33,4.68,0,1.66-.42,3.21-1.25,4.63-.83,1.43-2.05,2.56-3.66,3.41-1.61.85-3.51,1.27-5.72,1.27-2.09,0-3.98-.37-5.66-1.11Z"/>
        <path class="cls-2" d="M279.48,57.54c-1.84-1.02-3.28-2.46-4.32-4.32-1.05-1.86-1.57-4.02-1.57-6.45s.54-4.59,1.61-6.45c1.08-1.86,2.55-3.31,4.41-4.32,1.86-1.02,3.94-1.53,6.24-1.53s4.37.51,6.24,1.53c1.86,1.02,3.33,2.46,4.41,4.32,1.08,1.87,1.61,4.02,1.61,6.45s-.55,4.59-1.66,6.45c-1.1,1.87-2.6,3.31-4.48,4.32-1.88,1.02-3.98,1.53-6.3,1.53s-4.36-.51-6.2-1.53ZM288.75,53.02c.96-.53,1.73-1.33,2.3-2.39.57-1.06.86-2.35.86-3.87,0-2.27-.6-4.01-1.79-5.23-1.19-1.22-2.65-1.83-4.37-1.83s-3.16.61-4.32,1.83c-1.16,1.22-1.74,2.96-1.74,5.23s.57,4.01,1.7,5.23c1.13,1.22,2.56,1.83,4.28,1.83,1.09,0,2.12-.26,3.08-.8Z"/>
        <path class="cls-2" d="M311.27,40.86h-4.17v17.82h-6.11v-17.82h-2.71v-4.67h2.71v-1.14c0-2.76.83-4.79,2.5-6.09,1.66-1.3,4.17-1.91,7.53-1.83v4.79c-1.46-.03-2.48.2-3.06.69-.57.49-.86,1.37-.86,2.64v.93h4.17v4.67Z"/>
        <path class="cls-2" d="M320.01,40.86v10.88c0,.76.19,1.31.58,1.64.39.34,1.04.51,1.96.51h2.8v1c0,2.09-1.7,3.79-3.79,3.79h0c-6.23.39-7.62-2.33-7.62-6.98v-10.84h-2.84v-4.67h2.84v-9.06h0c3.35,0,6.07,2.52,6.07,5.63v3.42h.67c2.58,0,4.67,2.09,4.67,4.67h0s-5.34,0-5.34,0Z"/>
      </g>
      <polygon class="cls-2" points="67.51 26.98 64.51 43.96 57.02 86.43 38.37 86.43 23.93 56.53 18.64 86.43 0 86.43 10.5 26.98 29.14 26.98 43.5 57.37 48.87 26.98 67.51 26.98"/>
    </g>
  </g>
</svg>