<?xml version="1.0" encoding="UTF-8"?>
<svg id="Capa_2" data-name="Capa 2" xmlns="http://www.w3.org/2000/svg" viewBox="0 0 58.14 34.89">
  <defs>
    <style>
      .cls-1 {
        fill: #003c25;
        stroke-width: 0px;
      }
    </style>
  </defs>
  <g id="TEXTO">
    <path class="cls-1" d="M57.29,19.49c.54-.55.85-1.28.85-2.06V2.91c0-.38-.08-.76-.23-1.1-.29-.71-.86-1.27-1.57-1.57-.35-.15-.72-.23-1.1-.23h-14.53c-.77,0-1.51.31-2.06.85s-.85,1.28-.85,2.06.31,1.51.85,2.06,1.28.85,2.06.85h7.53l-16.25,16.25-9.56-9.59c-.27-.27-.59-.49-.95-.64-.35-.15-.73-.22-1.12-.22s-.76.08-1.12.22c-.35.15-.68.36-.95.64L.85,29.91c-.55.55-.85,1.29-.85,2.06s.31,1.52.85,2.06c.55.55,1.29.85,2.06.85s1.52-.31,2.06-.85l15.37-15.4,9.56,9.59c.27.27.59.49.95.64.35.15.73.22,1.12.22s.76-.08,1.12-.22c.35-.15.68-.36.95-.64l18.28-18.31v7.53c0,.77.31,1.51.85,2.06.54.55,1.28.85,2.06.85s1.51-.31,2.06-.85Z"/>
  </g>
</svg>