<?xml version="1.0" encoding="UTF-8"?>
<svg id="Capa_2" data-name="Capa 2" xmlns="http://www.w3.org/2000/svg" viewBox="0 0 165.07 165.07">
  <defs>
    <style>
      .cls-1 {
        fill: #00683e;
      }

      .cls-1, .cls-2 {
        stroke-width: 0px;
      }

      .cls-2 {
        fill: #fff;
      }
    </style>
  </defs>
  <g id="TEXTO">
    <circle class="cls-2" cx="82.54" cy="82.54" r="82.54"/>
    <g>
      <path class="cls-1" d="M141.19,75.95c-2.31-19.74-15.42-37.83-33.88-46.19C64.11,10.32,17.7,45.92,23.94,91.46c2.74,21.44,18.85,40.38,39.75,47.09,2.14.81,4.96,1.39,7.19,1.94,6.4,1.36,13.22-2.94,14.66-9.21.4-1.55.36-3.31.36-4.89l.21-26.58c.01-1.96-1.62-3.57-3.62-3.54-1.99.01-3.59,1.6-3.57,3.54l.16,18.31c.01,1.78.03,6.56.05,8.27-.01,1.03.08,2.36-.16,3.34-.67,2.89-3.81,4.89-6.77,4.27l-1.27-.31c-1.49-.34-3.67-.86-5.08-1.41-1.95-.56-4.24-1.61-6.12-2.41-1.1-.54-2.96-1.59-4.07-2.15-1.24-.83-2.63-1.65-3.84-2.52l-2.07-1.6c-.59-.48-1.5-1.12-2-1.69-13.16-11.45-19.62-29.8-16.3-46.75,7.12-35.96,50.36-52.48,80.83-31.78,31.72,21.17,28.73,67.93-5.18,85.35-4.19,2.32-.91,8.37,3.41,6.21,21.24-11.25,33.97-35.5,30.71-59ZM72.49,32.04c-1.08,0-1.95-.85-1.95-1.91s.87-1.91,1.95-1.91,1.95.86,1.95,1.91-.87,1.91-1.95,1.91ZM82.7,32.04c-1.52,0-2.76-1.21-2.76-2.7s1.23-2.7,2.76-2.7,2.76,1.21,2.76,2.7-1.23,2.7-2.76,2.7ZM92.58,32.04c-1.08,0-1.95-.85-1.95-1.91s.87-1.91,1.95-1.91,1.95.86,1.95,1.91-.87,1.91-1.95,1.91Z"/>
      <path class="cls-1" d="M108.05,81.22c3.31-.79,6.17-2.26,8.45-4.77,2.07-2.26,3.08-5.43,2.69-8.45-.38-3.02-2.15-5.85-4.73-7.54-2.75-1.81-6.37-2.26-9.51-1.24,1.03-3.08.57-6.63-1.27-9.32-1.73-2.53-4.6-4.26-7.68-4.64-3.08-.38-6.31.61-8.61,2.64-2.56,2.24-4.06,5.05-4.86,8.3-.8-3.24-2.3-6.06-4.86-8.3-2.31-2.03-5.54-3.02-8.61-2.64-3.08.37-5.95,2.11-7.68,4.64-1.84,2.7-2.31,6.24-1.27,9.32-3.14-1.02-6.76-.56-9.51,1.24-2.57,1.69-4.35,4.52-4.73,7.54-.38,3.02.63,6.18,2.7,8.45,2.29,2.5,5.14,3.98,8.45,4.77-3.31.79-6.16,2.26-8.45,4.77-2.07,2.26-3.08,5.42-2.7,8.44.38,3.03,2.16,5.85,4.73,7.54,2.75,1.81,6.37,2.26,9.51,1.25-1.04,3.08-.57,6.62,1.27,9.32,1.73,2.52,4.6,4.26,7.68,4.64,3.08.38,6.31-.62,8.61-2.64,2.56-2.24,4.06-5.05,4.86-8.3.8,3.24,2.3,6.05,4.86,8.3,2.31,2.03,5.54,3.02,8.61,2.64,3.08-.38,5.95-2.11,7.68-4.64,1.84-2.7,2.3-6.24,1.27-9.32,3.14,1.01,6.75.56,9.51-1.25,2.57-1.69,4.34-4.51,4.73-7.54.38-3.02-.63-6.18-2.69-8.44-2.28-2.51-5.14-3.98-8.45-4.77ZM85.81,84.42c-1.44,3.63-2.51,7.67-3.27,11.85-.75-4.18-1.82-8.22-3.26-11.85-3.7-1.41-7.83-2.46-12.09-3.2,4.26-.75,8.39-1.79,12.09-3.2,1.44-3.64,2.51-7.67,3.26-11.85.76,4.18,1.82,8.22,3.27,11.85,3.7,1.41,7.82,2.45,12.08,3.2-4.26.73-8.38,1.79-12.08,3.2Z"/>
    </g>
  </g>
</svg>